<svg xmlns="http://www.w3.org/2000/svg" direction="ltr" width="339.425744444234" height="218.7854880529505" viewBox="606.4089555852793 164.5443099901726 339.4257456867174 218.7854880529505" stroke-linecap="round" stroke-linejoin="round" data-color-mode="light" class="tl-container tl-theme__force-sRGB tl-theme__light" style="background-color: rgb(249, 250, 251);"><defs/><g transform="matrix(1, 0, 0, 1, 653.5788, 206.9394)" opacity="1"><g transform="scale(1)"><path d="M2.3255,1.8576 T1.4084,2.9811 -0.5063,5.4017 -2.8292,8.8819 -4.9656,12.6355 -7.036,16.9017 -8.9847,21.4307 -10.2138,24.7548 -11.1983,28.0704 -12.0971,32.4821 -12.8158,38.3659 -12.8046,45.1156 -11.9504,52.399 -10.4873,60.0402 -8.3908,67.8397 -5.7839,75.7765 -2.1103,84.2873 2.5578,92.6285 7.5702,99.9366 13.9105,107.2053 21.2336,113.8427 28.7339,119.363 37.6749,124.4819 48.6025,129.2823 59.7762,133.2887 71.3947,136.3836 84.4788,138.8516 98.223,140.6722 112.3153,141.8213 126.0921,142.4473 139.1503,142.4769 152.4946,141.7072 165.6603,140.2063 177.4968,138.0278 189.3157,134.836 200.6497,130.9612 210.3424,126.9403 219.309,122.0663 227.1001,116.6483 233.29,111.3273 238.645,105.5723 243.0995,99.644 246.6016,93.993 249.7815,87.7971 252.5084,81.1618 254.5408,74.9478 256.2139,68.4362 257.4069,61.6343 258.0541,55.3318 258.4095,48.9196 258.4763,42.8283 258.2621,37.7821 257.6102,32.8316 256.4999,28.1215 255.0423,23.9861 253.1307,20.1483 250.9697,16.7726 248.4013,13.4268 244.9168,9.885 240.8916,6.6212 236.3467,3.4416 231.4284,0.4776 225.8887,-1.9235 219.2394,-4.1036 212.805,-5.8721 206.7209,-7.0996 200.985,-7.9067 195.4289,-8.3458 189.2586,-8.5858 183.6351,-8.5998 178.3578,-8.2072 173.2099,-7.5897 168.509,-6.7355 163.5884,-5.339 159.1699,-3.5875 154.9678,-1.3498 150.8243,1.3015 147.1889,4.2713 143.5966,7.9154 140.5026,11.5528 138.1582,15.0399 136.3516,18.4953 135.0988,21.8867 134.188,25.5575 133.6134,28.9793 133.4882,32.8852 134.1444,37.3405 135.4821,40.71 137.1939,43.5031 139.4397,46.6294 143.0583,50.2653 147.8914,54.3087 152.9195,58.1116 158.7431,62.2718 164.8508,66.6207 170.0327,70.3203 174.6394,73.9862 178.4929,77.4048 181.2745,80.2782 183.8102,83.5632 185.6371,88.2486 185.8985,92.6688 184.9564,96.1022 183.1329,99.6641 180.1255,103.1447 175.8994,106.4529 170.8129,109.3467 164.5434,111.66 156.9999,113.3481 148.854,114.5355 140.1918,115.3146 130.8584,115.5816 120.998,115.2596 109.801,114.1313 98.4,112.2752 88.4737,110.0723 78.7819,107.1855 69.7678,103.9711 62.4997,100.9694 56.2097,97.6048 51.1015,94.1333 47.434,91.075 44.4447,87.4916 41.9681,83.4813 40.1886,79.8331 39.0623,75.701 38.4744,71.2285 38.2722,66.9907 38.7586,62.227 39.7642,57.2896 40.9135,52.9725 42.632,48.6821 44.5868,44.6646 46.2126,41.3807 48.3492,37.5723 50.8144,33.6926 53.3269,30.5229 54.7469,28.9501 A2.7669,2.7669 0 0 1 58.6731,32.8499 T57.3509,34.0378 54.7947,36.6042 52.067,39.9033 49.7235,43.2482 47.968,46.3424 46.1043,50.0592 44.5255,53.9511 43.4443,58.0111 42.5961,62.58 42.1643,66.8415 42.2945,70.7448 42.7869,74.7077 43.6465,78.2781 45.0817,81.6217 47.1985,85.2082 49.7526,88.4144 53.0647,91.2987 57.8445,94.5682 63.8299,97.778 70.9372,100.7088 79.7649,103.8566 89.2324,106.6715 98.9678,108.8222 110.1387,110.6271 121.1044,111.7104 130.7433,111.9919 139.8439,111.6835 148.2949,110.8517 156.125,109.6226 163.1038,107.9668 168.6762,105.7761 173.0694,103.0393 176.4199,100.1464 178.6309,97.3411 180.27,93.4953 181.0426,89.2877 180.2073,85.797 178.4798,82.8045 176.0847,80.0807 172.4172,76.8065 167.9263,73.2994 162.7132,69.6726 156.5524,65.4155 150.5698,61.317 145.2703,57.5578 139.937,53.4003 135.6556,49.4969 132.9434,46.1152 130.4931,41.4326 129.0634,35.6238 129.1007,31.3566 129.6267,28.2274 130.4268,24.5634 131.5737,20.473 133.148,16.7641 135.2555,13.0606 137.843,9.289 141.1495,5.4845 145.0142,1.5927 148.9507,-1.6036 153.3614,-4.4195 157.8847,-6.7914 162.6571,-8.6519 167.9006,-10.1229 172.7971,-11.0109 178.1162,-11.6429 183.6303,-12.0466 189.3945,-12.0325 195.708,-11.7849 201.4572,-11.3277 207.408,-10.4872 213.7122,-9.214 220.3268,-7.3999 227.2955,-5.0985 233.2181,-2.5222 238.3641,0.562 243.1159,3.8649 247.471,7.3876 251.3108,11.2579 253.9999,14.8901 256.2224,18.6166 258.2867,22.8467 259.8459,27.3222 261.0205,32.3976 261.702,37.6308 261.9188,42.8555 261.8474,49.1147 261.4793,55.6819 260.7966,62.2243 259.5449,69.3023 257.8138,76.0168 255.6924,82.4641 252.8373,89.3796 249.5282,95.8047 245.8548,101.7027 241.1595,107.9176 235.5373,113.9313 229.0759,119.4643 220.9455,125.0881 211.6675,130.1172 201.7705,134.2167 190.2041,138.1609 178.1248,141.4125 166.056,143.6266 152.6885,145.1457 139.1448,145.9208 125.937,145.8897 112.0344,145.2557 97.7689,144.0889 83.8362,142.239 70.495,139.7116 58.6174,136.5408 47.2037,132.4411 35.9401,127.4704 26.6788,122.1552 18.9086,116.4251 11.2712,109.4811 4.6789,101.9268 -0.5192,94.3674 -5.3914,85.689 -9.2214,76.9206 -11.9502,68.8113 -14.1966,60.7773 -15.8298,52.8839 -16.8785,45.1737 -17.113,37.9327 -16.6655,31.6694 -15.9488,26.6773 -14.9945,23.0755 -13.8501,19.5933 -11.9734,14.6773 -9.9371,10.1228 -7.646,5.8683 -5.116,1.8869 -3.2187,-0.7148 -2.3255,-1.8576 A2.9763,2.9763 0 0 1 2.3255,1.8576 Z" stroke-linecap="round" fill="#1d1d1d"/></g></g></svg>